<svg width="24" height="24" version="1.1" viewBox="0 0 6.35 6.35" xmlns="http://www.w3.org/2000/svg"><circle id="aska" cx="3.21" cy="3.21" r="2.55" style="fill:#1c6dd0"/><path id="askb" transform="scale(.265)" d="m11.9 6.98c-0.211 0-0.381 0.17-0.381 0.381v4.13h-4.13c-0.211 0-0.381 0.17-0.381 0.381v0.504c0 0.211 0.17 0.381 0.381 0.381h4.13v4.13c0 0.211 0.17 0.381 0.381 0.381h0.504c0.211 0 0.381-0.17 0.381-0.381v-4.13h4.13c0.211 0 0.381-0.17 0.381-0.381v-0.504c0-0.211-0.17-0.381-0.381-0.381h-4.13v-4.13c0-0.211-0.17-0.381-0.381-0.381h-0.504z" style="fill:#fff"/></svg>