<?xml version="1.0" encoding="UTF-8" standalone="no"?>
<!-- Created with Inkscape (http://www.inkscape.org/) -->

<svg
   width="600"
   height="252"
   viewBox="0 0 158.75 66.675002"
   version="1.1"
   id="svg5"
   xmlns="http://www.w3.org/2000/svg"
   xmlns:svg="http://www.w3.org/2000/svg">
  <defs
     id="defs2" />
  <g
     id="layer1">
    <path
       d="m 15.156358,52.387506 q -1.136882,-3.634579 -6.1150484,-17.518323 1.5158434,0.03445 2.6182744,0.03445 1.171333,0 2.394343,-0.03445 l 4.030764,13.143048 0.551216,-1.498617 3.875735,-9.835754 q 0.275608,-0.68902 0.68902,-1.808677 1.41249,0.03445 2.514921,0.03445 1.119657,0 2.549372,-0.03445 l -2.807754,6.080598 -4.065216,9.215637 -0.912951,2.222088 q -1.550294,-0.03445 -2.601049,-0.03445 -1.102431,0 -2.721627,0.03445 z"
       style="font-weight:bold;font-size:35.2778px;line-height:1.25;font-family:'Eras Demi ITC';-inkscape-font-specification:'Eras Demi ITC';letter-spacing:0px;word-spacing:0px;fill:#fcfcfc;fill-opacity:1;stroke-width:0.264583"
       id="path9018" />
    <path
       d="m 29.470739,52.387506 c 0.172255,-1.722549 0.292833,-3.163749 0.361735,-4.323598 0.114837,-1.837385 0.212448,-3.956121 0.292833,-6.356206 0.09187,-2.400085 0.15503,-4.679591 0.189481,-6.838519 1.125399,0.02297 1.969448,0.03445 2.532147,0.03445 0.516765,0 1.355072,-0.01148 2.514921,-0.03445 -0.160771,1.998157 -0.292833,3.904444 -0.396186,5.718863 -0.09187,1.814418 -0.160771,3.89296 -0.206706,6.235627 -0.04593,2.342666 -0.0689,4.197277 -0.0689,5.563833 -1.045013,-0.02297 -1.88332,-0.03445 -2.514921,-0.03445 -0.597151,0 -1.498618,0.01148 -2.704402,0.03445 z"
       style="font-weight:bold;font-size:35.2778px;line-height:1.25;font-family:'Eras Demi ITC';-inkscape-font-specification:'Eras Demi ITC';letter-spacing:0px;word-spacing:0px;fill:#fcfcfc;fill-opacity:1;stroke-width:0.264583"
       id="path9020" />
    <path
       d="m 56.687012,52.387506 q -1.429716,-0.03445 -2.222089,-0.03445 -0.861274,0 -2.377117,0.03445 l 0.155029,-2.997236 q -0.757921,0.981853 -1.309137,1.515844 -0.53399,0.53399 -1.343588,0.999078 -0.792372,0.447863 -1.722549,0.671794 -0.930176,0.223931 -1.929255,0.223931 -1.653647,0 -3.100588,-0.602892 -1.446941,-0.602892 -2.463245,-1.688098 -1.016303,-1.102431 -1.498617,-2.601049 -0.482314,-1.515843 -0.482314,-3.152264 0,-2.256539 0.861275,-4.3925 0.861274,-2.153186 2.359892,-3.479549 1.498617,-1.326362 3.393421,-1.877578 1.894804,-0.551215 4.065215,-0.551215 1.56752,0 3.548451,0.292833 0.120579,-2.239314 0.120579,-4.702559 v -1.171333 q 1.619195,0.03445 2.48047,0.03445 1.119657,0 2.514921,-0.03445 -0.37896,4.375274 -0.72347,11.920038 -0.327284,7.527539 -0.327284,11.592755 z M 52.432316,38.021448 q -1.291912,-0.34451 -2.480471,-0.34451 -1.360813,0 -2.601049,0.378961 -1.240235,0.37896 -2.204862,1.291911 -0.947402,0.912951 -1.464167,2.342667 -0.516764,1.429715 -0.516764,2.756078 0,1.326363 0.465088,2.428794 0.482314,1.102431 1.481392,1.739774 0.999078,0.637344 2.256539,0.637344 0.947402,0 1.722549,-0.327285 0.775147,-0.344509 1.41249,-1.033529 0.637343,-0.706245 1.06798,-1.808676 0.447863,-1.102432 0.637343,-2.928334 0.120579,-1.343588 0.223932,-5.133195 z"
       style="font-weight:bold;font-size:35.2778px;line-height:1.25;font-family:'Eras Demi ITC';-inkscape-font-specification:'Eras Demi ITC';letter-spacing:0px;word-spacing:0px;fill:#fcfcfc;fill-opacity:1;stroke-width:0.264583"
       id="path9022" />
    <path
       d="m 58.788521,60.311231 q -0.310059,-2.583824 -0.499539,-3.720706 1.653647,0.775147 3.117813,0.775147 0.447863,0 0.912951,-0.120579 0.465088,-0.103352 0.861275,-0.310058 0.258382,-0.137804 0.516764,-0.396187 0.275608,-0.258382 0.740696,-0.947401 0.465089,-0.68902 0.809598,-1.360814 0.275608,-0.568441 0.568441,-1.429716 L 62.233619,42.310595 59.615344,34.869183 q 1.808677,0.03445 2.601049,0.03445 0.912951,0 2.394343,-0.03445 0.361736,1.429716 0.671794,2.480471 l 1.636422,5.408803 q 0.757921,2.497696 1.085206,3.755157 0.206705,0.826823 0.482313,2.187637 0.516765,-1.56752 0.895726,-2.549372 0.671794,-1.791451 1.877578,-4.788686 l 1.670872,-4.116892 q 0.447863,-1.102432 0.912951,-2.377118 1.550294,0.03445 2.359892,0.03445 0.740696,0 2.480471,-0.03445 l -6.631814,14.865597 -2.876656,6.562912 q -0.602892,1.274686 -1.154108,1.980931 -0.447863,0.602892 -0.981853,1.033529 -0.516764,0.413412 -1.102431,0.68902 -0.740696,0.34451 -1.601971,0.551215 -0.981852,0.206706 -1.980931,0.206706 -0.568441,0 -1.584745,-0.103353 -1.016304,-0.103353 -1.980931,-0.344509 z"
       style="font-weight:bold;font-size:35.2778px;line-height:1.25;font-family:'Eras Demi ITC';-inkscape-font-specification:'Eras Demi ITC';letter-spacing:0px;word-spacing:0px;fill:#fcfcfc;fill-opacity:1;stroke-width:0.264583"
       id="path9024" />
    <path
       d="m 81.285007,38.710467 q 0.241157,-1.240235 0.292833,-1.739774 0.0689,-0.499539 0.223932,-1.515843 2.342666,-0.551216 4.134117,-0.775147 1.791451,-0.223931 3.462323,-0.223931 1.894804,0 3.479549,0.447862 1.584745,0.430637 2.480471,1.395265 0.895725,0.964627 0.895725,2.773304 0,0.981852 -0.275608,5.012617 -0.275608,4.013539 -0.327284,8.302686 -1.309137,-0.03445 -2.411569,-0.03445 -1.050754,0 -2.463245,0.03445 0.223932,-2.084285 0.361736,-4.823137 l 0.223931,-4.289147 q -0.654569,0.430637 -0.999078,0.602892 -0.34451,0.172255 -0.775147,0.327284 -0.430638,0.137804 -1.515843,0.447863 -1.085206,0.292833 -1.739775,0.516765 -0.654568,0.223931 -1.188558,0.516764 -0.516765,0.275608 -0.8785,0.637343 -0.361736,0.34451 -0.533991,0.740696 -0.155029,0.378961 -0.155029,0.826824 0,0.72347 0.413412,1.257461 0.430637,0.516764 1.06798,0.72347 0.637343,0.206706 1.498618,0.206706 0.551215,0 1.154107,-0.08613 0.620118,-0.08613 1.653647,-0.430638 -0.361735,0.981853 -0.844049,2.928334 -1.223009,0.206705 -1.94648,0.258382 -0.72347,0.05168 -1.343588,0.05168 -2.170412,0 -3.565676,-0.585666 -1.395265,-0.585667 -2.067059,-1.860353 -0.654569,-1.274686 -0.654569,-2.566598 0,-0.740696 0.258383,-1.464167 0.258382,-0.72347 0.757921,-1.326362 0.49954,-0.602892 1.291912,-1.154108 0.792373,-0.568441 2.29099,-1.085206 1.498618,-0.53399 3.961863,-1.06798 0.654568,-0.137804 1.360813,-0.327284 0.706245,-0.206706 1.119657,-0.396187 0.430637,-0.18948 0.740696,-0.482313 0.310059,-0.310059 0.447863,-0.637343 0.155029,-0.327285 0.155029,-0.671794 0,-0.671795 -0.447863,-1.136883 -0.430637,-0.465088 -1.136882,-0.637343 -0.689019,-0.18948 -1.533068,-0.18948 -3.135039,0 -6.924647,1.498616 z"
       style="font-weight:bold;font-size:35.2778px;line-height:1.25;font-family:'Eras Demi ITC';-inkscape-font-specification:'Eras Demi ITC';letter-spacing:0px;word-spacing:0px;fill:#fcfcfc;fill-opacity:1;stroke-width:0.264583"
       id="path9026" />
    <path
       d="m 110.70614,48.787378 q -0.2067,0.947402 -0.65456,3.514 -1.44695,0.327284 -2.27377,0.413412 -0.82682,0.08613 -1.55029,0.08613 -1.27469,0 -2.29099,-0.241157 -0.99908,-0.241156 -1.65365,-0.844048 -0.65457,-0.620118 -0.89573,-1.429716 -0.22393,-0.826824 -0.22393,-1.705323 0,-0.223932 0.0172,-0.602893 0.0172,-0.37896 0.1378,-2.446019 l 0.39619,-7.165803 h -2.480472 q 0.08613,-1.03353 0.15503,-3.32452 h 2.601052 q 0.10335,-0.999078 0.2067,-3.393421 l 2.03261,-0.396186 q 0.63734,-0.120579 2.46325,-0.568442 -0.12058,2.325441 -0.13781,4.358049 h 4.37528 q -0.12058,2.325441 -0.12058,3.32452 h -4.3925 q -0.36174,7.010774 -0.36174,8.113205 0,1.06798 0.22393,1.653647 0.24116,0.585666 0.75792,0.844049 0.51677,0.258382 1.10244,0.258382 0.43063,0 0.89572,-0.0689 0.48232,-0.0689 1.67087,-0.378961 z"
       style="font-weight:bold;font-size:35.2778px;line-height:1.25;font-family:'Eras Demi ITC';-inkscape-font-specification:'Eras Demi ITC';letter-spacing:0px;word-spacing:0px;fill:#fcfcfc;fill-opacity:1;stroke-width:0.264583"
       id="path9028" />
    <path
       d="m 114.3924,38.710467 q 0.24116,-1.240235 0.29283,-1.739774 0.0689,-0.499539 0.22393,-1.515843 2.34267,-0.551216 4.13412,-0.775147 1.79145,-0.223931 3.46232,-0.223931 1.89481,0 3.47955,0.447862 1.58475,0.430637 2.48047,1.395265 0.89573,0.964627 0.89573,2.773304 0,0.981852 -0.27561,5.012617 -0.27561,4.013539 -0.32728,8.302686 -1.30914,-0.03445 -2.41157,-0.03445 -1.05076,0 -2.46325,0.03445 0.22393,-2.084285 0.36174,-4.823137 l 0.22393,-4.289147 q -0.65457,0.430637 -0.99908,0.602892 -0.34451,0.172255 -0.77515,0.327284 -0.43063,0.137804 -1.51584,0.447863 -1.0852,0.292833 -1.73977,0.516765 -0.65457,0.223931 -1.18856,0.516764 -0.51677,0.275608 -0.8785,0.637343 -0.36174,0.34451 -0.53399,0.740696 -0.15503,0.378961 -0.15503,0.826824 0,0.72347 0.41341,1.257461 0.43064,0.516764 1.06798,0.72347 0.63734,0.206706 1.49862,0.206706 0.55121,0 1.15411,-0.08613 0.62011,-0.08613 1.65364,-0.430638 -0.36173,0.981853 -0.84405,2.928334 -1.22301,0.206705 -1.94648,0.258382 -0.72347,0.05168 -1.34358,0.05168 -2.17042,0 -3.56568,-0.585666 -1.39527,-0.585667 -2.06706,-1.860353 -0.65457,-1.274686 -0.65457,-2.566598 0,-0.740696 0.25838,-1.464167 0.25839,-0.72347 0.75793,-1.326362 0.49953,-0.602892 1.29191,-1.154108 0.79237,-0.568441 2.29099,-1.085206 1.49861,-0.53399 3.96186,-1.06798 0.65457,-0.137804 1.36081,-0.327284 0.70625,-0.206706 1.11966,-0.396187 0.43064,-0.18948 0.7407,-0.482313 0.31006,-0.310059 0.44786,-0.637343 0.15503,-0.327285 0.15503,-0.671794 0,-0.671795 -0.44786,-1.136883 -0.43064,-0.465088 -1.13689,-0.637343 -0.68902,-0.18948 -1.53307,-0.18948 -3.13503,0 -6.92464,1.498616 z"
       style="font-weight:bold;font-size:35.2778px;line-height:1.25;font-family:'Eras Demi ITC';-inkscape-font-specification:'Eras Demi ITC';letter-spacing:0px;word-spacing:0px;fill:#fcfcfc;fill-opacity:1;stroke-width:0.264583"
       id="path9030" />
    <path
       d="m 133.06483,52.387506 0.34451,-4.478628 0.39619,-8.595519 0.18948,-7.355283 q 0.0344,-1.998157 0.0344,-3.083363 1.80867,0.03445 2.5666,0.03445 0.89572,0 2.35989,-0.03445 l -0.36174,5.598284 -0.41341,8.922803 -0.17225,6.666265 -0.0172,2.325441 q -1.53307,-0.03445 -2.41157,-0.03445 -0.99908,0 -2.51492,0.03445 z m 5.49493,-9.801304 3.49678,-4.271921 q 0.44786,-0.551216 1.06798,-1.360814 0.62011,-0.809598 1.56752,-2.084284 1.79145,0.03445 2.61827,0.03445 1.13688,0 2.87666,-0.03445 l -5.66719,6.511235 -1.0163,1.240235 q 1.25746,1.998157 6.97632,9.766853 -1.55029,-0.03445 -2.65273,-0.03445 -1.10243,0 -2.73885,0.03445 -0.99908,-1.636422 -1.63642,-2.618275 -0.62012,-0.999078 -1.15411,-1.739774 l -2.92833,-4.185794 q -0.12058,-0.172255 -0.8096,-1.257461 z"
       style="font-weight:bold;font-size:35.2778px;line-height:1.25;font-family:'Eras Demi ITC';-inkscape-font-specification:'Eras Demi ITC';letter-spacing:0px;word-spacing:0px;fill:#fcfcfc;fill-opacity:1;stroke-width:0.264583"
       id="path9032" />
    <g
       id="g20597"
       transform="rotate(-1.813374,38.525747,42.076554)">
      <path
         id="path9174"
         style="font-size:35.2778px;line-height:1.25;font-family:'Arial Rounded MT Bold';-inkscape-font-specification:'Arial Rounded MT Bold, ';letter-spacing:0px;word-spacing:0px;fill:#fcfcfc;fill-opacity:1;stroke:none;stroke-width:0.695526;stroke-linecap:square"
         d="m 34.374607,17.369939 c -2.617054,-0.177985 -4.909561,2.191609 -5.120463,5.29264 -0.144599,2.145578 1.552611,4.434446 1.903301,5.195841 0.132312,0.287264 0.19199,0.831346 0.214968,1.397447 0.430499,-0.02198 1.057853,-0.06231 1.716301,-0.130604 0.04269,-0.86818 0.07592,-1.725708 -0.121203,-2.368436 -0.186676,-0.60866 -0.519076,-1.049812 -0.930713,-1.480704 -0.03366,-0.02881 -0.06506,-0.06165 -0.09476,-0.09775 -0.0053,-0.0055 -0.01044,-0.01075 -0.01584,-0.01622 l 7.28e-4,-0.0028 c -0.0358,-0.0462 -0.06927,-0.09565 -0.09668,-0.15158 -0.07738,-0.157858 -0.103385,-0.323661 -0.08042,-0.467672 0.02302,-0.144015 0.09782,-0.269346 0.221662,-0.330049 0.05356,-0.02622 0.113298,-0.03878 0.174892,-0.03692 0.215787,0.0067 0.424529,0.175135 0.541584,0.414013 0.0041,0.0081 0.0064,0.01647 0.01,0.02463 l 0.01848,0.0064 c 0.192526,0.06603 0.400854,-0.03567 0.466914,-0.228171 l 0.01015,-0.02992 c -0.0066,-0.07217 -0.0088,-0.146226 -0.0036,-0.222343 0.01864,-0.274269 0.113547,-0.518316 0.255547,-0.693219 0.14199,-0.174903 0.33472,-0.281848 0.542012,-0.267737 0.207307,0.01408 0.383942,0.146144 0.500959,0.33866 0.117007,0.192516 0.178005,0.447165 0.159348,0.721433 -0.0047,0.06937 -0.01461,0.136726 -0.02854,0.201604 l 0.0097,0.04983 c 0.0388,0.196688 0.226151,0.324811 0.422604,0.291003 0.0061,-0.0099 0.0108,-0.0203 0.01736,-0.03017 0.148354,-0.220876 0.37755,-0.359554 0.592289,-0.336909 0.06141,0.0065 0.119035,0.02692 0.168644,0.06027 0.114487,0.07691 0.171323,0.2112 0.174583,0.356996 0.0033,0.145806 -0.0444,0.306584 -0.142452,0.452517 -0.037,0.05509 -0.07975,0.102192 -0.124603,0.144999 l 1.78e-4,0.0053 c -0.01026,0.0078 -0.02011,0.01568 -0.03024,0.02352 -0.0149,0.01286 -0.03008,0.02405 -0.04547,0.03546 -0.487267,0.381963 -0.886758,0.771837 -1.163459,1.369819 -0.261582,0.565309 -0.352057,1.340147 -0.423801,2.139723 0.889332,-0.13634 1.685624,-0.336104 1.966507,-0.628752 0.03183,-0.06092 0.06535,-0.119306 0.101033,-0.174515 0.685874,-1.061588 2.442095,-2.744937 2.589172,-4.890347 0.210845,-3.101036 -1.739773,-5.759168 -4.356831,-5.937108 z m -0.394665,5.918772 c -0.164345,-0.01118 -0.322142,0.07279 -0.447185,0.226812 -0.125041,0.154017 -0.213495,0.37678 -0.230694,0.629706 -0.0172,0.252924 0.04025,0.486151 0.143286,0.655678 0.103038,0.169526 0.248042,0.273737 0.412389,0.284901 0.164349,0.01119 0.322475,-0.07242 0.447522,-0.226427 0.125039,-0.154017 0.213533,-0.377319 0.230728,-0.630244 0.0172,-0.252926 -0.04029,-0.485613 -0.143321,-0.655139 -0.10304,-0.169526 -0.248374,-0.274119 -0.412725,-0.285287 z m -1.8368,0.996741 c -0.04483,-0.0012 -0.08563,0.0076 -0.122236,0.02556 -0.08516,0.04176 -0.141214,0.129265 -0.159981,0.246702 -0.01882,0.117449 0.0024,0.261873 0.0704,0.400527 0.06795,0.138623 0.168877,0.243354 0.273173,0.300471 0.104306,0.05712 0.207799,0.06688 0.29297,0.02523 0.08519,-0.04175 0.141215,-0.129247 0.159982,-0.246702 0.01866,-0.117459 -0.0022,-0.261862 -0.07021,-0.400512 -0.102638,-0.209429 -0.286989,-0.346303 -0.444088,-0.351185 z m 3.506696,0.238459 c -0.156325,-0.01644 -0.357832,0.09416 -0.487899,0.287811 -0.01171,0.01746 -0.02043,0.03558 -0.03048,0.0534 l 9.65e-4,0.005 -0.0044,9.06e-4 c -0.06135,0.111287 -0.09178,0.227279 -0.0895,0.328229 0.0027,0.118914 0.04596,0.21318 0.124742,0.266063 0.07873,0.05288 0.182612,0.05723 0.293691,0.01466 0.111077,-0.04247 0.225772,-0.13254 0.311874,-0.260692 0.0861,-0.128181 0.126108,-0.26844 0.123434,-0.387344 -0.0027,-0.118916 -0.04599,-0.21316 -0.124745,-0.266063 -0.03383,-0.02275 -0.07308,-0.03716 -0.117652,-0.04187 z m -1.084811,0.09934 c -0.0437,0.116027 -0.102268,0.219962 -0.172704,0.306719 -0.142006,0.174902 -0.33489,0.281836 -0.542194,0.267725 -0.207296,-0.01408 -0.383764,-0.146132 -0.500778,-0.338648 -0.05648,-0.09291 -0.09909,-0.200819 -0.1268,-0.3179 -0.106072,0.151188 -0.294543,0.229432 -0.479431,0.192376 0.032,0.110953 0.04129,0.221367 0.02535,0.321267 -0.02302,0.144016 -0.0978,0.268987 -0.22164,0.329692 -0.08371,0.04101 -0.176639,0.04377 -0.267671,0.02125 0.345379,0.369926 0.660149,0.77491 0.824177,1.309726 0.20694,0.674721 0.170933,1.533652 0.128386,2.395224 0.233099,-0.02552 0.467411,-0.05593 0.698294,-0.08923 0.07172,-0.813156 0.158781,-1.613176 0.439516,-2.21989 0.23492,-0.507687 0.601749,-0.866321 0.994077,-1.186081 -0.09347,0.01005 -0.185416,-0.0053 -0.262868,-0.05733 -0.114521,-0.07688 -0.171312,-0.210832 -0.174608,-0.356635 -0.0023,-0.100377 0.02183,-0.207583 0.06771,-0.312418 -0.182251,0.0015 -0.349807,-0.103551 -0.428816,-0.265847 z m 1.273098,4.241365 c -0.895618,0.533077 -3.330896,0.775815 -4.4543,0.862882 0.002,0.196552 4.9e-4,0.387228 -0.0026,0.563075 1.115024,-0.05963 3.334511,-0.228555 4.271057,-0.668735 0.04636,-0.256975 0.106783,-0.515536 0.185864,-0.757222 z m -0.24417,1.129902 c -0.989721,0.461608 -3.145523,0.681883 -4.22572,0.767468 -0.0095,0.257245 -0.01983,0.422847 -0.01983,0.422847 0,0 3.375317,-0.21288 4.182471,-0.565963 0.0137,-0.191654 0.03355,-0.403489 0.06299,-0.624358 z m -0.0831,0.98108 c -0.35082,0.160618 -3.720525,0.519404 -4.166314,0.489089 0,0 3.979085,0.37479 4.156145,0.03395 0.01295,-0.02493 -0.0018,-0.224703 0.01016,-0.523035 z" />
      <path
         style="fill:none;stroke:#ffffff;stroke-width:0.3;stroke-linecap:butt;stroke-linejoin:miter;stroke-miterlimit:4;stroke-dasharray:none;stroke-opacity:1"
         d="M 27.533653,19.217035 C 24.951799,17.726401 22.369296,16.235392 19.787117,14.74457"
         id="path18684" />
      <path
         style="fill:none;stroke:#ffffff;stroke-width:0.3;stroke-linecap:butt;stroke-linejoin:miter;stroke-miterlimit:4;stroke-dasharray:none;stroke-opacity:1"
         d="m 41.041652,19.602627 c 3.107588,-1.807809 6.215784,-3.615972 9.323676,-5.423958"
         id="path18840" />
      <path
         style="fill:none;stroke:#ffffff;stroke-width:0.3;stroke-linecap:butt;stroke-linejoin:miter;stroke-miterlimit:4;stroke-dasharray:none;stroke-opacity:1"
         d="m 34.660416,15.345833 c 0,-1.587236 0,-3.175 0,-4.7625"
         id="path18974" />
      <path
         style="fill:none;stroke:#ffffff;stroke-width:0.3;stroke-linecap:butt;stroke-linejoin:miter;stroke-miterlimit:4;stroke-dasharray:none;stroke-opacity:1"
         d="m 23.340625,28.407247 c 1.330494,-0.793617 2.661436,-1.5875 3.992154,-2.38125"
         id="path19130" />
      <path
         style="fill:none;stroke:#ffffff;stroke-width:0.3;stroke-linecap:butt;stroke-linejoin:miter;stroke-miterlimit:4;stroke-dasharray:none;stroke-opacity:1"
         d="M 43.869237,28.572612 C 42.626786,27.823003 41.38419,27.073307 40.141666,26.323654"
         id="path19273" />
      <path
         style="fill:none;stroke:#ffffff;stroke-width:0.264583px;stroke-linecap:butt;stroke-linejoin:miter;stroke-opacity:1"
         d="m 38.728384,16.43724 c 0.617342,-0.716558 1.234722,-1.43316 1.852083,-2.14974"
         id="path19312" />
      <path
         style="fill:none;stroke:#ffffff;stroke-width:0.264583px;stroke-linecap:butt;stroke-linejoin:miter;stroke-opacity:1"
         d="m 30.342932,16.484129 c -0.517148,-0.791913 -1.034327,-1.583873 -1.551491,-2.37581"
         id="path19469" />
      <path
         style="fill:none;stroke:#ffffff;stroke-width:0.3;stroke-linecap:butt;stroke-linejoin:miter;stroke-miterlimit:4;stroke-dasharray:none;stroke-opacity:1"
         d="m 24.42963,22.388233 c 0.792149,0.110075 1.584256,0.220143 2.376384,0.330215"
         id="path19475" />
      <path
         style="fill:none;stroke:#ffffff;stroke-width:0.3;stroke-linecap:butt;stroke-linejoin:miter;stroke-miterlimit:4;stroke-dasharray:none;stroke-opacity:1"
         d="m 40.983204,23.356234 c 0.593347,0.07108 1.186608,0.142149 1.779912,0.213224"
         id="path19618" />
      <circle
         style="fill:#fcfcfc;fill-opacity:1;stroke:none;stroke-width:0.0758975;stroke-linecap:square;stroke-miterlimit:4;stroke-dasharray:none;stroke-opacity:1"
         id="path19987"
         cx="19.107878"
         cy="14.345378"
         r="0.19481555" />
      <circle
         style="fill:#fcfcfc;fill-opacity:1;stroke:none;stroke-width:0.441176;stroke-linecap:square;stroke-miterlimit:4;stroke-dasharray:none;stroke-opacity:1"
         id="path20293"
         cx="41.225395"
         cy="13.592969"
         r="0.20670573" />
      <circle
         style="fill:#fcfcfc;fill-opacity:1;stroke:none;stroke-width:0.3;stroke-linecap:square;stroke-miterlimit:4;stroke-dasharray:none;stroke-opacity:1"
         id="path20397"
         cx="43.64798"
         cy="23.729815"
         r="0.24804688" />
      <circle
         style="fill:#fcfcfc;fill-opacity:1;stroke:none;stroke-width:0.346154;stroke-linecap:square;stroke-miterlimit:4;stroke-dasharray:none;stroke-opacity:1"
         id="path20501"
         cx="22.646679"
         cy="28.719692"
         r="0.18603514" />
    </g>
  </g>
</svg>
